<!DOCTYPE svg PUBLIC "-//W3C//DTD SVG 1.1//EN" "http://www.w3.org/Graphics/SVG/1.1/DTD/svg11.dtd">
<!-- Uploaded to: SVG Repo, www.svgrepo.com, Transformed by: SVG Repo Mixer Tools -->
<svg fill="#ff80d7" version="1.1" id="Capa_1" xmlns="http://www.w3.org/2000/svg" xmlns:xlink="http://www.w3.org/1999/xlink" width="243px" height="243px" viewBox="-37.93 -37.93 455.18 455.18" xml:space="preserve" stroke="#ff80d7" stroke-width="0.0037932">
<g id="SVGRepo_bgCarrier" stroke-width="0"/>
<g id="SVGRepo_tracerCarrier" stroke-linecap="round" stroke-linejoin="round"/>
<g id="SVGRepo_iconCarrier"> <g> <path d="M221.945,374.157c31.236-27.885,113.069-71.488,98.239-180.19c-3.607-38.254-11.571-58.987-19.115-85.617 C287.185,59.359,216.971-27.448,137.777,8.482C58.583,44.401,22.173,240.605,102.325,255.915 c10.749,1.564,34.827-38.383,37.519-51.45c2.691-13.066,16.179-3.059,29.24-30.267c13.055-27.214,1.279-50.445,9.996-68.188 c8.717-17.761,12.448-31.056,38.558-27.243c17.423,4.355,12.611,27.943,16.185,41.016c3.562,13.067,31.248,27.75,30.57,37.355 c-0.677,9.575-12.308,7.006-12.039,17.334c0,4.222,5.955,7.252,6.166,12.15c0.198,4.904-6.586,8.676-6.586,8.676 s6.025,3.784,4.426,9.284c-1.588,5.511-9.085,5.079-11.935,6.632c-1.331,0.736,10.72,19.396,2.476,29.531 c-10.065,11.842-60.388-0.63-70.08,3.142c-18.228,7.077-33.303,31.646-23.272,43.275c10.042,11.619,53.768,12.786,53.697,80.28 C207.244,381.583,213,382.132,221.945,374.157"/> </g> </g>
</svg>