<?xml version="1.0" encoding="iso-8859-1"?>
<!-- Uploaded to: SVG Repo, www.svgrepo.com, Generator: SVG Repo Mixer Tools -->
<svg version="1.1" id="Layer_1" xmlns="http://www.w3.org/2000/svg" xmlns:xlink="http://www.w3.org/1999/xlink" 
	 viewBox="0 0 512 512" xml:space="preserve">
<path style="fill:#E3EDED;" d="M406.261,512H105.739c-9.223,0-16.696-7.473-16.696-16.696V16.696C89.043,7.473,96.516,0,105.739,0
	h300.522c9.223,0,16.696,7.473,16.696,16.696v478.609C422.957,504.527,415.484,512,406.261,512z"/>
<path style="fill:#C6DCE5;" d="M406.261,0H256v512h150.261c9.223,0,16.696-7.473,16.696-16.696V16.696
	C422.957,7.473,415.484,0,406.261,0z"/>
<g>
	<path style="fill:#898890;" d="M172.522,166.957c-9.223,0-16.696-7.473-16.696-16.696V83.478c0-9.223,7.473-16.696,16.696-16.696
		s16.696,7.473,16.696,16.696v66.783C189.217,159.484,181.744,166.957,172.522,166.957z"/>
	<path style="fill:#898890;" d="M172.522,445.217c-9.223,0-16.696-7.473-16.696-16.696V283.826c0-9.223,7.473-16.696,16.696-16.696
		s16.696,7.473,16.696,16.696v144.696C189.217,437.744,181.744,445.217,172.522,445.217z"/>
</g>
<rect x="89.043" y="200.348" style="fill:#AAC9D6;" width="333.913" height="33.391"/>
</svg>