<?xml version="1.0" encoding="iso-8859-1"?>
<!-- Uploaded to: SVG Repo, www.svgrepo.com, Generator: SVG Repo Mixer Tools -->
<svg height="800px" width="800px" version="1.1" id="Layer_1" xmlns="http://www.w3.org/2000/svg" xmlns:xlink="http://www.w3.org/1999/xlink" 
	 viewBox="0 0 512 512" xml:space="preserve">
<path style="fill:#4AD0FF;" d="M449.208,67.247h-97.374c-8.015,0-15.938,0.599-23.728,1.737v32.624
	c7.747-1.419,15.682-2.16,23.728-2.16h97.374c16.868,0,30.591,13.723,30.591,30.591s-13.723,30.591-30.591,30.591
	c-38.767,0-70.306,31.539-70.306,70.306v42.171c0,8.892,7.209,16.101,16.101,16.101s16.101-7.209,16.101-16.101v-42.171
	c0-21.011,17.093-38.105,38.105-38.105c34.624,0,62.792-28.168,62.792-62.792S483.832,67.247,449.208,67.247z"/>
<path style="fill:#FB5858;" d="M451.947,275.595c-13.186-11.039-30.485-15.629-47.456-12.598L274.861,286.14
	c-40.783,7.288-70.383,42.579-70.383,83.916v58.597c0,8.892,7.209,16.101,16.101,16.101H439.76c7.305,0,13.695-4.919,15.565-11.982
	l16.959-64.082c0.355-1.344,0.536-2.728,0.536-4.118v-44.147C472.82,303.038,465.212,286.699,451.947,275.595z"/>
<path style="fill:#FF835D;" d="M338.649,274.75l-63.789,11.388c-40.783,7.288-70.383,42.579-70.383,83.916v58.597
	c0,8.892,7.209,16.101,16.101,16.101h118.071L338.649,274.75z"/>
<path style="fill:#2C6991;" d="M439.76,444.433c-26.457,0-47.983-21.524-47.983-47.982s21.525-47.982,47.983-47.982
	c26.457,0,47.982,21.524,47.982,47.982S466.218,444.433,439.76,444.433z"/>
<path style="fill:#528FB3;" d="M439.76,444.433c-26.457,0-47.983-21.524-47.983-47.982s21.525-47.982,47.983-47.982V444.433z"/>
<path style="fill:#2C6991;" d="M281.76,390.011h-23.614c-8.892,0-16.101-7.209-16.101-16.101s7.209-16.101,16.101-16.101h23.614
	c8.892,0,16.101,7.209,16.101,16.101S290.652,390.011,281.76,390.011z"/>
<path style="fill:#528FB3;" d="M271.027,390.011h-12.88c-8.892,0-16.101-7.209-16.101-16.101s7.209-16.101,16.101-16.101h12.88
	V390.011z"/>
<circle style="fill:#FB5858;" cx="439.759" cy="396.448" r="15.781"/>
<path style="fill:#FF835D;" d="M439.76,412.231c-8.716,0-15.781-7.065-15.781-15.781c0-8.716,7.065-15.781,15.781-15.781V412.231z"
	/>
<path style="fill:#99E5FF;" d="M92.293,373.559c-3.037,0-6.106-0.858-8.833-2.651c-7.429-4.887-9.49-14.87-4.603-22.299
	l136.798-207.944c18.902-28.732,45.876-50.228,76.883-62.309c18.605-7.248,38.661-11.108,59.296-11.108v32.201
	c-20.385,0-40.067,4.694-57.737,13.377c-20.605,10.126-38.476,25.677-51.541,45.537L105.759,366.306
	C102.666,371.008,97.529,373.559,92.293,373.559z"/>
<path style="fill:#2C6991;" d="M118.608,348.149H59.035C26.483,348.149,0,374.632,0,407.185c0,8.892,7.209,16.101,16.101,16.101
	h102.508c8.892,0,16.101-6.889,16.101-15.781V364.57C134.709,355.677,127.5,348.149,118.608,348.149z"/>
<path style="fill:#528FB3;" d="M75.674,348.149H59.035C26.483,348.149,0,374.632,0,407.185c0,8.892,7.209,16.101,16.101,16.101
	h59.573V348.149z"/>
<path style="fill:#16A5D9;" d="M134.709,404.859V364.57c0-8.892-7.209-16.42-16.101-16.42H59.035
	c-31.773,0-57.749,25.233-58.976,56.709H134.709z"/>
<path style="fill:#4AD0FF;" d="M75.674,404.859v-56.709H59.035c-31.773,0-57.749,25.233-58.976,56.709H75.674z"/>
</svg>