<?xml version="1.0" encoding="iso-8859-1"?>
<!-- Uploaded to: SVG Repo, www.svgrepo.com, Generator: SVG Repo Mixer Tools -->
<svg height="800px" width="800px" version="1.1" id="Layer_1" xmlns="http://www.w3.org/2000/svg" xmlns:xlink="http://www.w3.org/1999/xlink" 
	 viewBox="0 0 512 512" xml:space="preserve">
<path style="fill:#EDEDED;" d="M496.941,512H15.059C6.776,512,0,505.224,0,496.941V15.059C0,6.776,6.776,0,15.059,0h481.882
	C505.224,0,512,6.776,512,15.059v481.882C512,505.224,505.224,512,496.941,512z"/>
<g>
	<path style="fill:#D8D8DA;" d="M496.941,0h-60.235c8.282,0,15.059,6.776,15.059,15.059v481.882c0,8.282-6.776,15.059-15.059,15.059
		h60.235c8.282,0,15.059-6.776,15.059-15.059V15.059C512,6.776,505.224,0,496.941,0z"/>
	<path style="fill:#D8D8DA;" d="M512,120.471H0V15.059C0,6.742,6.742,0,15.059,0h481.882C505.258,0,512,6.742,512,15.059V120.471z"
		/>
</g>
<path style="fill:#C5C5CA;" d="M496.941,0h-60.235c8.317,0,15.059,6.742,15.059,15.059v105.412H512V15.059
	C512,6.742,505.258,0,496.941,0z"/>
<circle style="fill:#D8D8DA;" cx="256" cy="316.235" r="135.529"/>
<path style="fill:#C5C5CA;" d="M256,180.706c-10.351,0-20.43,1.166-30.118,3.364c60.354,13.696,105.412,67.667,105.412,132.165
	s-45.058,118.469-105.412,132.165c9.687,2.199,19.766,3.364,30.118,3.364c74.851,0,135.529-60.678,135.529-135.529
	S330.851,180.706,256,180.706z"/>
<circle style="fill:#B4D8F1;" cx="256" cy="316.235" r="75.294"/>
<path style="fill:#98C8ED;" d="M225.882,316.235c0-33.714,22.159-62.247,52.706-71.843c-7.132-2.241-14.717-3.451-22.588-3.451
	c-41.583,0-75.294,33.711-75.294,75.294s33.711,75.294,75.294,75.294c7.871,0,15.456-1.212,22.588-3.451
	C248.041,378.482,225.882,349.949,225.882,316.235z"/>
<g>
	<path style="fill:#DC4161;" d="M444.235,71.529c-10.38,0-18.824-8.443-18.824-18.824s8.443-18.824,18.824-18.824
		c10.38,0,18.824,8.443,18.824,18.824S454.615,71.529,444.235,71.529z"/>
	<path style="fill:#DC4161;" d="M384,71.529c-10.38,0-18.824-8.443-18.824-18.824S373.62,33.882,384,33.882
		c10.38,0,18.824,8.443,18.824,18.824S394.38,71.529,384,71.529z"/>
</g>
<path style="fill:#EDEDED;" d="M120.471,71.529H45.176c-6.239,0-11.294-5.057-11.294-11.294s5.055-11.294,11.294-11.294h75.294
	c6.239,0,11.294,5.057,11.294,11.294S126.709,71.529,120.471,71.529z"/>
</svg>